<mxfile host="app.diagrams.net" modified="2021-09-23T08:11:57.159Z" agent="5.0 (Windows)" etag="X2X-vNDian7BNdZUqdI1" version="15.3.0" type="github">
  <diagram id="VqhHMMMKe97OA3lTIF6D" name="Page-1">
    <mxGraphModel dx="1038" dy="495" grid="1" gridSize="10" guides="1" tooltips="1" connect="1" arrows="1" fold="1" page="1" pageScale="1" pageWidth="827" pageHeight="1169" math="0" shadow="0">
      <root>
        <mxCell id="0" />
        <mxCell id="1" parent="0" />
        <mxCell id="e3bKcHsKsu9HTAHQPwHu-1" value="Тренер&lt;br&gt;" style="shape=umlActor;verticalLabelPosition=bottom;verticalAlign=top;html=1;outlineConnect=0;" parent="1" vertex="1">
          <mxGeometry x="60" y="132.5" width="30" height="60" as="geometry" />
        </mxCell>
        <mxCell id="jWGc02SBk--golVEA0gn-5" style="edgeStyle=none;rounded=0;orthogonalLoop=1;jettySize=auto;html=1;endArrow=none;endFill=0;" edge="1" parent="1" source="e3bKcHsKsu9HTAHQPwHu-2" target="e3bKcHsKsu9HTAHQPwHu-1">
          <mxGeometry relative="1" as="geometry" />
        </mxCell>
        <mxCell id="e3bKcHsKsu9HTAHQPwHu-2" value="запись команды на матч" style="ellipse;whiteSpace=wrap;html=1;" parent="1" vertex="1">
          <mxGeometry x="130" y="52.5" width="150" height="60" as="geometry" />
        </mxCell>
        <mxCell id="jWGc02SBk--golVEA0gn-6" style="edgeStyle=none;rounded=0;orthogonalLoop=1;jettySize=auto;html=1;endArrow=none;endFill=0;" edge="1" parent="1" source="e3bKcHsKsu9HTAHQPwHu-3" target="e3bKcHsKsu9HTAHQPwHu-1">
          <mxGeometry relative="1" as="geometry" />
        </mxCell>
        <mxCell id="e3bKcHsKsu9HTAHQPwHu-3" value="определение состава на игру" style="ellipse;whiteSpace=wrap;html=1;" parent="1" vertex="1">
          <mxGeometry x="150" y="112.5" width="150" height="60" as="geometry" />
        </mxCell>
        <mxCell id="jWGc02SBk--golVEA0gn-7" style="edgeStyle=none;rounded=0;orthogonalLoop=1;jettySize=auto;html=1;endArrow=none;endFill=0;" edge="1" parent="1" source="e3bKcHsKsu9HTAHQPwHu-4" target="e3bKcHsKsu9HTAHQPwHu-1">
          <mxGeometry relative="1" as="geometry" />
        </mxCell>
        <mxCell id="e3bKcHsKsu9HTAHQPwHu-4" value="определение эффективности игрока" style="ellipse;whiteSpace=wrap;html=1;" parent="1" vertex="1">
          <mxGeometry x="150" y="172.5" width="150" height="60" as="geometry" />
        </mxCell>
        <mxCell id="jWGc02SBk--golVEA0gn-8" style="edgeStyle=none;rounded=0;orthogonalLoop=1;jettySize=auto;html=1;endArrow=none;endFill=0;" edge="1" parent="1" source="e3bKcHsKsu9HTAHQPwHu-5" target="e3bKcHsKsu9HTAHQPwHu-1">
          <mxGeometry relative="1" as="geometry" />
        </mxCell>
        <mxCell id="e3bKcHsKsu9HTAHQPwHu-5" value="выплата игрокам ЗП" style="ellipse;whiteSpace=wrap;html=1;" parent="1" vertex="1">
          <mxGeometry x="130" y="232.5" width="150" height="60" as="geometry" />
        </mxCell>
        <mxCell id="e3bKcHsKsu9HTAHQPwHu-6" value="Болельщик&lt;br&gt;" style="shape=umlActor;verticalLabelPosition=bottom;verticalAlign=top;html=1;outlineConnect=0;" parent="1" vertex="1">
          <mxGeometry x="770" y="160" width="30" height="60" as="geometry" />
        </mxCell>
        <mxCell id="jWGc02SBk--golVEA0gn-9" style="edgeStyle=none;rounded=0;orthogonalLoop=1;jettySize=auto;html=1;endArrow=none;endFill=0;" edge="1" parent="1" source="e3bKcHsKsu9HTAHQPwHu-7" target="e3bKcHsKsu9HTAHQPwHu-6">
          <mxGeometry relative="1" as="geometry" />
        </mxCell>
        <mxCell id="e3bKcHsKsu9HTAHQPwHu-7" value="просмотр матча" style="ellipse;whiteSpace=wrap;html=1;" parent="1" vertex="1">
          <mxGeometry x="560" y="102.5" width="150" height="60" as="geometry" />
        </mxCell>
        <mxCell id="jWGc02SBk--golVEA0gn-10" style="edgeStyle=none;rounded=0;orthogonalLoop=1;jettySize=auto;html=1;endArrow=none;endFill=0;" edge="1" parent="1" source="e3bKcHsKsu9HTAHQPwHu-8" target="e3bKcHsKsu9HTAHQPwHu-6">
          <mxGeometry relative="1" as="geometry" />
        </mxCell>
        <mxCell id="e3bKcHsKsu9HTAHQPwHu-8" value="приобретение &lt;br&gt;билета на матч" style="ellipse;whiteSpace=wrap;html=1;" parent="1" vertex="1">
          <mxGeometry x="530" y="161.5" width="150" height="60" as="geometry" />
        </mxCell>
        <mxCell id="jWGc02SBk--golVEA0gn-11" style="edgeStyle=none;rounded=0;orthogonalLoop=1;jettySize=auto;html=1;endArrow=none;endFill=0;" edge="1" parent="1" source="e3bKcHsKsu9HTAHQPwHu-9" target="e3bKcHsKsu9HTAHQPwHu-6">
          <mxGeometry relative="1" as="geometry" />
        </mxCell>
        <mxCell id="e3bKcHsKsu9HTAHQPwHu-9" value="выбрать худшего и лучшего игрока мачта" style="ellipse;whiteSpace=wrap;html=1;" parent="1" vertex="1">
          <mxGeometry x="560" y="222.5" width="150" height="60" as="geometry" />
        </mxCell>
        <mxCell id="jWGc02SBk--golVEA0gn-2" style="edgeStyle=none;rounded=0;orthogonalLoop=1;jettySize=auto;html=1;endArrow=none;endFill=0;" edge="1" parent="1" source="e3bKcHsKsu9HTAHQPwHu-10" target="e3bKcHsKsu9HTAHQPwHu-11">
          <mxGeometry relative="1" as="geometry" />
        </mxCell>
        <mxCell id="e3bKcHsKsu9HTAHQPwHu-10" value="Футболист" style="shape=umlActor;verticalLabelPosition=bottom;verticalAlign=top;html=1;outlineConnect=0;" parent="1" vertex="1">
          <mxGeometry x="50" y="380" width="30" height="60" as="geometry" />
        </mxCell>
        <mxCell id="e3bKcHsKsu9HTAHQPwHu-11" value="получение ЗП" style="ellipse;whiteSpace=wrap;html=1;" parent="1" vertex="1">
          <mxGeometry x="125" y="330" width="150" height="60" as="geometry" />
        </mxCell>
        <mxCell id="jWGc02SBk--golVEA0gn-3" style="edgeStyle=none;rounded=0;orthogonalLoop=1;jettySize=auto;html=1;endArrow=none;endFill=0;" edge="1" parent="1" source="e3bKcHsKsu9HTAHQPwHu-12" target="e3bKcHsKsu9HTAHQPwHu-10">
          <mxGeometry relative="1" as="geometry" />
        </mxCell>
        <mxCell id="e3bKcHsKsu9HTAHQPwHu-12" value="просмотр состава на матч" style="ellipse;whiteSpace=wrap;html=1;" parent="1" vertex="1">
          <mxGeometry x="150" y="390" width="150" height="60" as="geometry" />
        </mxCell>
        <mxCell id="jWGc02SBk--golVEA0gn-4" style="edgeStyle=none;rounded=0;orthogonalLoop=1;jettySize=auto;html=1;endArrow=none;endFill=0;" edge="1" parent="1" source="e3bKcHsKsu9HTAHQPwHu-13" target="e3bKcHsKsu9HTAHQPwHu-10">
          <mxGeometry relative="1" as="geometry" />
        </mxCell>
        <mxCell id="e3bKcHsKsu9HTAHQPwHu-13" value="просмотр расписания тренировок" style="ellipse;whiteSpace=wrap;html=1;" parent="1" vertex="1">
          <mxGeometry x="120" y="450" width="150" height="60" as="geometry" />
        </mxCell>
      </root>
    </mxGraphModel>
  </diagram>
</mxfile>
